# xmcd
#
# Track frame offsets:
#	150
#	15740
#	29609
#	48411
#	64263
#	78242
#	93058
#	109991
#	122741
#	133937
#	144403
#	161899
#
# Disc length: 2376 seconds
# Revision: 0
# Processed by: cddbd v1.5.2PL0 Copyright (c) Steve Scherf et al.
# Submitted via: dBpowerAMP V12.0
#
DISCID=a509460c
DTITLE=Bill Emerson and Sweet Dixie - The Touch of Time
DYEAR=2011
DGENRE=Country
TTITLE0=My Baby Thinks He's a Train
TTITLE1=Castle Hayne
TTITLE2=Little Pink
TTITLE3=The Touch of Time
TTITLE4=Home Sweet Dixie Home
TTITLE5=Today I Turned Your Picture to the Wall
TTITLE6=The Rope
TTITLE7=These Ones
TTITLE8=You're the Highlight of My Life
TTITLE9=Love Gone Cold
TTITLE10=Electric Avenue
TTITLE11=Last Night I Was There
EXTD=
EXTT0=
EXTT1=
EXTT2=
EXTT3=
EXTT4=
EXTT5=
EXTT6=
EXTT7=
EXTT8=
EXTT9=
EXTT10=
EXTT11=
PLAYORDER=
